<?xml version="1.0" encoding="utf-8"?>
<!-- Generator: Adobe Illustrator 25.2.1, SVG Export Plug-In . SVG Version: 6.00 Build 0)  -->
<svg version="1.1" id="Layer_1" xmlns="http://www.w3.org/2000/svg" xmlns:xlink="http://www.w3.org/1999/xlink" x="0px" y="0px"
	 viewBox="0 0 827.46 238.75" style="enable-background:new 0 0 827.46 238.75;" xml:space="preserve">
<style type="text/css">
	.st0{fill:#0096D5;}
	.st1{fill:#00C9E8;}
	.st2{fill:#1D3AB2;}
	.st3{fill:#206BCE;}
	.st4{fill:none;}
</style>
<g>
	<g>
		<path class="st0" d="M132.37,68.84l-89.4,89.4l117.15,31.39c2.21,0.59,4.23-1.43,3.64-3.64L132.37,68.84z"/>
		<path class="st1" d="M152.85,42.3L5.79,2.89c-2.12-0.57-4.07,1.37-3.5,3.5l40.69,151.84L154.13,47.08
			C155.69,45.52,154.98,42.87,152.85,42.3z"/>
		<path class="st2" d="M42.97,158.23l11.97,44.68l-39.23-10.51c-2.42-0.65-3.24-3.68-1.46-5.45L42.97,158.23z"/>
		<path class="st3" d="M42.97,158.23l82.53,22.11l-56.73,56.73c-1.64,1.64-4.44,0.89-5.04-1.35L42.97,158.23z"/>
	</g>
	<g>
		<g>
			<path d="M218.21,89.43c-13.33,0-22.72,7.02-22.88,17.49c-0.16,10.83,7.84,15.44,19.37,17.37l8.92,1.44
				c8.2,1.34,9.94,2.98,9.86,7.98c-0.07,4.52-4.16,7.85-12.5,7.85c-12.67,0-15.85-6.31-16.66-7.85h-11.07
				c0.87,5.24,7.06,17.49,27.58,17.49c15.11,0,23.32-7.73,23.48-17.97c0.16-10.59-5.51-15.56-19.35-17.85l-8.68-1.43
				c-7.14-1.23-10.42-2.97-10.36-7.49c0.06-4.28,4.16-7.61,12.14-7.61c10,0,13.86,4.73,14.53,6.43h10.71
				C241.96,100.5,237.37,89.43,218.21,89.43"/>
			<path d="M744.1,89.43c-13.33,0-22.72,7.02-22.88,17.49c-0.16,10.83,7.84,15.44,19.37,17.37l8.92,1.44
				c8.2,1.34,9.94,2.98,9.86,7.98c-0.07,4.52-4.16,7.85-12.5,7.85c-12.67,0-15.85-6.31-16.66-7.85h-11.07
				c0.87,5.24,7.06,17.49,27.59,17.49c15.11,0,23.32-7.73,23.48-17.97c0.16-10.59-5.51-15.56-19.35-17.85l-8.68-1.43
				c-7.14-1.23-10.43-2.97-10.36-7.49c0.07-4.28,4.16-7.61,12.14-7.61c10,0,13.86,4.73,14.53,6.43h10.71
				C767.85,100.5,763.26,89.43,744.1,89.43"/>
			<path d="M801.82,89.43c-13.33,0-22.72,7.02-22.88,17.49c-0.16,10.83,7.84,15.44,19.37,17.37l8.92,1.44
				c8.2,1.34,9.93,2.98,9.86,7.98c-0.07,4.52-4.17,7.85-12.5,7.85c-12.67,0-15.85-6.31-16.66-7.85h-11.07
				c0.87,5.24,7.06,17.49,27.59,17.49c15.11,0,23.32-7.73,23.48-17.97c0.16-10.59-5.51-15.56-19.35-17.85l-8.68-1.43
				c-7.14-1.23-10.42-2.97-10.36-7.49c0.07-4.28,4.16-7.61,12.14-7.61c10,0,13.86,4.73,14.53,6.43h10.71
				C825.57,100.5,820.98,89.43,801.82,89.43"/>
		</g>
		<polygon points="304.81,90.98 293.75,90.98 276.37,134.66 258.99,90.98 247.09,90.98 270.77,148.82 260.39,175.01 271.22,175.01 
					"/>
		<g>
			<path d="M341.23,89.67c-9.76,0-15.47,6.31-17.61,11.19v-9.88h-10.83v58.79h10.83V116.8c0-11.07,5.71-17.14,14.99-17.14
				c8.81,0,14.28,5.83,14.28,17.14v32.97h10.95v-34.99C363.84,99.07,354.8,89.67,341.23,89.67"/>
			<path d="M399.31,89.43c-15.35,0-26.78,13.09-26.78,30.94c0,17.73,11.54,30.82,26.9,30.82c18.8,0,23.92-15.11,24.64-18.92h-10.47
				c-1.07,2.14-4.28,9.05-14.16,9.05c-9.52,0-15.71-9.16-15.71-20.95c0-11.9,6.19-20.94,15.59-20.94c9.4,0,13.09,6.66,14.16,9.04
				h10.59C423.23,104.07,418.11,89.43,399.31,89.43"/>
			<path d="M444.07,65.74h-10.83v84.03h10.83V117.4c0-11.42,5.71-17.73,15-17.73c8.81,0,14.28,6.07,14.28,17.73v32.37h10.95v-34.39
				c0-16.07-9.04-25.71-22.61-25.71c-9.76,0-15.47,6.54-17.61,11.66V65.74z"/>
			<path d="M563.32,89.55c-16.66,0-27.61,13.33-27.61,30.82c0,17.5,10.95,30.82,27.61,30.82c16.66,0,27.61-13.33,27.61-30.82
				C590.93,102.88,579.98,89.55,563.32,89.55 M563.32,141.2c-10.83,0-16.42-9.28-16.42-20.83c0-11.54,5.71-20.83,16.42-20.83
				c10.71,0,16.42,9.28,16.42,20.83C579.74,131.92,574.03,141.2,563.32,141.2"/>
			<path d="M627.35,89.67c-9.76,0-15.47,6.31-17.61,11.19v-9.88h-10.83v58.79h10.83V116.8c0-11.07,5.71-17.14,14.99-17.14
				c8.81,0,14.28,5.83,14.28,17.14v32.97h10.95v-34.99C649.96,99.07,640.92,89.67,627.35,89.67"/>
			<path d="M686.26,89.55c-16.66,0-27.61,13.33-27.61,30.82c0,17.5,10.95,30.82,27.61,30.82c16.66,0,27.61-13.33,27.61-30.82
				C713.87,102.88,702.92,89.55,686.26,89.55 M686.26,141.2c-10.83,0-16.42-9.28-16.42-20.83c0-11.54,5.71-20.83,16.42-20.83
				c10.71,0,16.42,9.28,16.42,20.83C702.68,131.92,696.97,141.2,686.26,141.2"/>
			<path d="M533.22,90.5h-7.61c-13.21,0-18.33,6.66-19.99,11.07V90.98h-10.83v58.79h10.83v-33.2c0-10.24,5.47-15.23,19.04-15.23
				h8.57V90.5z"/>
		</g>
	</g>
	<rect x="-86" y="-56" class="st4" width="999.46" height="352.75"/>
</g>
</svg>
